<svg width="16" height="16" viewBox="0 0 16 16" xmlns="http://www.w3.org/2000/svg">
<g clip-path="url(#clip0_659_183)">
<path d="M16 8.0175C16 8.26258 16 8.47265 15.965 8.71772C15.6149 12.814 12.1838 16 7.98249 16C3.57112 16 0 12.4289 0 8.0175C0 3.60613 3.57112 0 8.0175 0C12.2188 0 15.6499 3.22101 16 7.28228C16 7.52735 16 7.77243 16 8.0175Z"/>
<path d="M7.002 5.00656H5.60156V11.3435H7.002V5.00656Z" fill="#101010"/>
<path d="M15.9998 8.01751C15.9998 8.26259 15.9998 8.47265 15.9648 8.71773H8.89258V7.31729H15.9648C15.9998 7.52736 15.9998 7.77243 15.9998 8.01751Z" fill="#101010"/>
<path d="M6.47705 8.78775L7.03723 8.19257V9.24289L6.47705 8.78775Z" fill="#101010"/>
<path d="M11.7987 5.00656L9.73304 7.28227L9.10285 8.0175L8.89278 8.22757L8.15755 9.06783L7.17725 8.0175L8.15755 6.93216L9.9081 5.00656H11.7987Z" fill="#101010"/>
<path d="M6.47705 7.24726L7.03723 6.75711V7.84245L6.47705 7.24726Z" fill="#101010"/>
<path d="M12.1138 11.3435H10.2232L8.15755 9.06783L7.17725 8.0175L8.15755 6.93216L8.89278 7.77242L9.10285 8.0175L9.73304 8.71772L12.1138 11.3435Z" fill="#101010"/>
</g>
<defs>
<clipPath id="clip0_659_183">
<rect width="16" height="16"/>
</clipPath>
</defs>
</svg>
