<svg width="56" height="13" viewBox="0 0 56 13" xmlns="http://www.w3.org/2000/svg">
<g clip-path="url(#clip0_659_179)">
<path d="M18.4218 11.0024H19.8169L21.7669 3.75731V11.0024H23.3364V1.42682H21.1803L19.2303 8.44999L17.2803 1.42682H15.0767V11.0024H16.4242V3.75731L18.4218 11.0024ZM29.8998 6.26218C29.8998 4.56584 29.0596 3.9317 27.3157 3.9317C26.2218 3.9317 25.3657 4.26462 24.8584 4.56584V5.9134C25.2864 5.58048 26.2535 5.2317 27.1096 5.2317C27.9181 5.2317 28.251 5.53292 28.251 6.24633V6.62682H27.9974C25.4925 6.62682 24.3511 7.46706 24.3511 8.87804C24.3511 10.289 25.1913 11.0817 26.4754 11.0817C27.4425 11.0817 27.8706 10.7805 28.1718 10.4475H28.251C28.251 10.6219 28.3303 10.8756 28.3779 11.0024H29.995C29.9474 10.4475 29.9157 9.86096 29.9157 9.30609C29.8998 9.30609 29.8998 6.26218 29.8998 6.26218ZM28.251 9.35365C28.045 9.65487 27.6645 9.90853 27.062 9.90853C26.3803 9.90853 26.0474 9.48048 26.0474 8.89389C26.0474 8.08535 26.6023 7.79999 28.045 7.79999H28.2986V9.3695H28.251V9.35365ZM32.7376 4.05853H31.2157V13H32.8645V10.2097C33.2925 10.8439 33.8791 11.1451 34.6084 11.1451C36.2254 11.1451 37.3193 9.87682 37.3193 7.54633C37.3193 5.21584 36.2571 3.94755 34.6876 3.94755C33.9267 3.94755 33.2925 4.28048 32.8169 4.96218C32.8328 4.94633 32.7376 4.05853 32.7376 4.05853ZM34.1486 9.86096C33.3084 9.86096 32.8328 9.14755 32.8328 7.57804C32.8328 5.96096 33.2925 5.24755 34.2279 5.24755C35.1157 5.24755 35.5754 5.96096 35.5754 7.53048C35.5754 9.14755 35.1157 9.86096 34.1486 9.86096ZM42.4401 11.0024H44.3108L41.6791 7.27682L44.0096 4.05853H42.3608L40.0303 7.27682V4.05853H38.3815V11.0024H40.0303V7.60975L42.4401 11.0024ZM49.812 10.5427V9.19511C49.3047 9.52804 48.4645 9.82926 47.6559 9.82926C46.4669 9.82926 46.0071 9.27438 45.912 8.08535H49.8437V7.19755C49.8437 4.78779 48.7815 3.89999 47.1328 3.89999C45.1352 3.89999 44.1681 5.42194 44.1681 7.54633C44.1681 9.95609 45.3571 11.1451 47.434 11.1451C48.5913 11.1293 49.3523 10.8756 49.812 10.5427ZM47.1486 5.24755C47.9571 5.24755 48.2108 5.92926 48.2108 6.7695V6.89633H45.912C45.9596 5.80243 46.3876 5.24755 47.1486 5.24755ZM55.7413 5.37438V4.05853H50.2401V5.37438H52.1901V11.0024H53.8389V5.37438H55.7413Z"/>
<path d="M6.35732 12.7146C9.86837 12.7146 12.7146 9.86837 12.7146 6.35732C12.7146 2.84627 9.86837 0 6.35732 0C2.84627 0 0 2.84627 0 6.35732C0 9.86837 2.84627 12.7146 6.35732 12.7146Z"/>
<path d="M7.27659 3.56708H6.64244C5.54854 3.56708 4.99366 4.12196 4.99366 4.9622C4.99366 5.89757 5.37415 6.35732 6.18269 6.9122L6.81683 7.37196L4.99366 10.2098H3.50342L5.24732 7.62561C4.23269 6.9122 3.67781 6.23049 3.67781 5.04147C3.67781 3.55122 4.69244 2.53659 6.64244 2.53659H8.59244V10.1622H7.32415V3.55122H7.27659V3.56708Z" fill="#101010"/>
</g>
<defs>
<clipPath id="clip0_659_179">
<rect width="55.7415" height="13"/>
</clipPath>
</defs>
</svg>
