<svg width="86" height="86" viewBox="0 0 86 86" fill="none" xmlns="http://www.w3.org/2000/svg">
<path fill-rule="evenodd" clip-rule="evenodd" d="M86 43.2671H85.9965C85.9965 43.1769 86 43.0884 86 43C86 19.2518 66.7482 0 43 0C19.2517 0 0 19.2518 0 43C0 62.5136 13.101 78.6527 30.8094 84.2468C43.6277 88.2977 50.0785 82.5527 65.6852 80.5064C73.7158 79.4539 81.0509 82.6047 86 85.9289V43.2671Z" fill="#FBAF3B"/>
<path fill-rule="evenodd" clip-rule="evenodd" d="M65.6852 80.5064C50.0785 82.5526 43.6277 88.2976 30.8094 84.2468C13.101 78.6527 0 62.5136 0 43C0 30.4262 5.39819 19.1147 14.001 11.2524L86 85.9289C81.0509 82.6047 73.7158 79.4538 65.6852 80.5064Z" fill="#F6931D"/>
</svg>
