<svg width="12" height="12" viewBox="0 0 12 12" fill="none" xmlns="http://www.w3.org/2000/svg">
<circle cx="6" cy="6" r="5.5" stroke="#D24318"/>
<path d="M5.47498 7.90838V7.84091C5.47971 7.40057 5.52351 7.05019 5.60637 6.78977C5.69159 6.52936 5.81233 6.31866 5.96858 6.15767C6.12483 5.99669 6.31304 5.84991 6.53321 5.71733C6.67526 5.62737 6.8031 5.52675 6.91674 5.41548C7.03037 5.30421 7.12034 5.17637 7.18662 5.03196C7.25291 4.88755 7.28606 4.72775 7.28606 4.55256C7.28606 4.34186 7.23634 4.15956 7.13691 4.00568C7.03748 3.8518 6.9049 3.73343 6.73918 3.65057C6.57583 3.56534 6.39354 3.52273 6.19231 3.52273C6.01001 3.52273 5.83601 3.56061 5.67029 3.63636C5.50457 3.71212 5.36726 3.83049 5.25836 3.99148C5.14945 4.15009 5.08672 4.35488 5.07015 4.60582H3.9906C4.00717 4.17969 4.11489 3.81984 4.31375 3.52628C4.51262 3.23035 4.7754 3.00663 5.10211 2.85511C5.43118 2.7036 5.79458 2.62784 6.19231 2.62784C6.62791 2.62784 7.00907 2.70952 7.33577 2.87287C7.66248 3.03385 7.91579 3.25994 8.09571 3.55114C8.27801 3.83996 8.36915 4.17732 8.36915 4.56321C8.36915 4.82836 8.32772 5.06747 8.24486 5.28054C8.162 5.49124 8.04363 5.67945 7.88975 5.84517C7.73823 6.01089 7.55594 6.15767 7.34287 6.28551C7.14164 6.41098 6.97829 6.54119 6.85282 6.67614C6.72971 6.81108 6.63975 6.97088 6.58293 7.15554C6.52611 7.3402 6.49534 7.56866 6.4906 7.84091V7.90838H5.47498ZM6.0112 10.0675C5.81707 10.0675 5.65017 9.99882 5.51049 9.86151C5.37081 9.72183 5.30097 9.55374 5.30097 9.35724C5.30097 9.16312 5.37081 8.9974 5.51049 8.86009C5.65017 8.72041 5.81707 8.65057 6.0112 8.65057C6.20296 8.65057 6.36868 8.72041 6.50836 8.86009C6.6504 8.9974 6.72142 9.16312 6.72142 9.35724C6.72142 9.48745 6.68828 9.60701 6.62199 9.71591C6.55807 9.82244 6.47285 9.90767 6.36631 9.97159C6.25978 10.0355 6.14141 10.0675 6.0112 10.0675Z" fill="#D24318"/>
</svg>
